<?xml version="1.0"?>
<svg xmlns="http://www.w3.org/2000/svg" height="512px" viewBox="0 0 480 480" width="512px" class=""><g><path d="m240 0c-132.546875 0-240 107.453125-240 240s107.453125 240 240 240 240-107.453125 240-240c-.148438-132.484375-107.515625-239.851562-240-240zm0 464c-123.710938 0-224-100.289062-224-224s100.289062-224 224-224 224 100.289062 224 224c-.140625 123.652344-100.347656 223.859375-224 224zm0 0" data-original="#000000" class="active-path" fill="#000000"/><path d="m184 143.007812c16.894531-9.792968 36.070312-14.96875 55.601562-15.007812.132813-.007812.265626-.007812.398438 0 4.417969 0 8-3.582031 8-8l.039062-79.929688c0-4.417968-3.582031-8-8-8h-.632812c-74.125.101563-142.570312 39.746094-179.535156 104-2.1875 3.828126-.871094 8.703126 2.945312 10.90625l69.238282 39.933594c1.839843 1.074219 4.03125 1.371094 6.085937.824219 2.058594-.546875 3.8125-1.890625 4.875-3.734375 9.800781-17.042969 23.941406-31.1875 40.984375-40.992188zm-50.65625 26.183594-55.457031-32c33.648437-53.179687 91.273437-86.441406 154.152343-88.976562v64c-39.976562 2.53125-76.472656 23.605468-98.65625 56.960937zm0 0" data-original="#000000" class="active-path" fill="#000000"/><path d="m417.160156 333-69.238281-39.9375c-1.839844-1.0625-4.027344-1.347656-6.078125-.796875s-3.800781 1.894531-4.859375 3.734375c-19.933594 34.527344-56.71875 55.855469-96.585937 56-.132813-.015625-.265626-.015625-.398438 0-4.417969 0-8 3.582031-8 8v79.929688c0 4.417968 3.582031 8 8 8h.632812c74.128907-.101563 142.570313-39.746094 179.535157-104 1.054687-1.847657 1.328125-4.039063.765625-6.089844-.566406-2.050782-1.921875-3.792969-3.773438-4.839844zm-81.160156 73.28125c-26.847656 15.511719-57.058594 24.261719-88.039062 25.503906l.039062-64c39.976562-2.53125 76.476562-23.605468 98.65625-56.960937l55.457031 32c-16.570312 26.195312-39.261719 47.972656-66.113281 63.457031zm0 0" data-original="#000000" class="active-path" fill="#000000"/><path d="m288 240c0-26.507812-21.492188-48-48-48s-48 21.492188-48 48 21.492188 48 48 48c26.5-.027344 47.972656-21.5 48-48zm-80 0c0-17.671875 14.328125-32 32-32s32 14.328125 32 32-14.328125 32-32 32-32-14.328125-32-32zm0 0" data-original="#000000" class="active-path" fill="#000000"/><path d="m336 240c0-53.019531-42.980469-96-96-96s-96 42.980469-96 96 42.980469 96 96 96c52.996094-.058594 95.941406-43.003906 96-96zm-176 0c0-44.183594 35.816406-80 80-80s80 35.816406 80 80-35.816406 80-80 80c-44.164062-.046875-79.953125-35.835938-80-80zm0 0" data-original="#000000" class="active-path" fill="#000000"/></g> </svg>
